<svg width="44" height="44" viewBox="0 0 44 44" fill="none" xmlns="http://www.w3.org/2000/svg">
<path d="M22 9.25C24.6234 9.25 26.75 11.3766 26.75 14C26.75 16.6234 24.6234 18.75 22 18.75C19.3766 18.75 17.25 16.6234 17.25 14C17.25 11.3766 19.3766 9.25 22 9.25Z" stroke="#616161" stroke-width="2.5"/>
<path d="M17.0205 22.3584C18.3448 23.2898 19.6956 23.7012 21.5 23.7012C23.2334 23.7012 24.721 23.3181 25.9863 22.3896C27.2814 22.8166 28.1692 23.7293 28.7715 24.8896C29.4712 26.2376 29.75 27.8685 29.75 29.2275V30.75H13.25V29.2275C13.25 27.7459 13.56 26.0985 14.2695 24.7725C14.8829 23.6264 15.7696 22.7542 17.0205 22.3584Z" stroke="#616161" stroke-width="2.5"/>
<path d="M8 15.25C9.51878 15.25 10.75 16.4812 10.75 18C10.75 19.5188 9.51878 20.75 8 20.75C6.48122 20.75 5.25 19.5188 5.25 18C5.25 16.4812 6.48122 15.25 8 15.25Z" stroke="#616161" stroke-width="2.5"/>
<path d="M8 25.25C8.44693 25.25 8.85105 25.257 9.22266 25.2646C8.86479 26.5073 8.67969 27.8497 8.67969 29.2012V30.75H2.25V29.9834C2.25 28.9439 2.4657 27.802 2.94238 26.8975C3.38542 26.0569 4.01986 25.4701 4.91797 25.2529C6.49745 25.3026 6.87975 25.25 8 25.25Z" stroke="#616161" stroke-width="2.5"/>
<path d="M35 15.25C36.5188 15.25 37.75 16.4812 37.75 18C37.75 19.5188 36.5188 20.75 35 20.75C33.4812 20.75 32.25 19.5188 32.25 18C32.25 16.4812 33.4812 15.25 35 15.25Z" stroke="#616161" stroke-width="2.5"/>
<path d="M35 25.25H38.0684C38.9737 25.4645 39.6123 26.0526 40.0576 26.8975C40.5343 27.802 40.75 28.9439 40.75 29.9834V30.75H34.3203V29.2012C34.3203 27.8527 34.1346 26.5137 33.7783 25.2734C34.2617 25.2647 34.6582 25.25 35 25.25Z" stroke="#616161" stroke-width="2.5"/>
</svg>
