<svg width="44" height="44" viewBox="0 0 44 44" fill="none" xmlns="http://www.w3.org/2000/svg">
<path d="M21.5 20C25.0899 20 28 17.0899 28 13.5C28 9.91015 25.0899 7 21.5 7C17.9102 7 15 9.91015 15 13.5C15 17.0899 17.9102 20 21.5 20Z" fill="#90B855"/>
<path d="M31 28.4791V30.0481C31 30.5739 30.5667 31 30.0322 31H12.9678C12.4333 31 12 30.5739 12 30.0481V28.4791C12 25.514 13.3498 21.7077 17.2937 21C18.5616 21.9289 19.7427 22.3189 21.5 22.3189C23.2599 22.3189 24.5979 21.922 25.6908 21.0169C29.7852 21.7857 31 25.7491 31 28.4791Z" fill="#90B855"/>
<path d="M8 22C10.2091 22 12 20.2091 12 18C12 15.7909 10.2091 14 8 14C5.79086 14 4 15.7909 4 18C4 20.2091 5.79086 22 8 22Z" fill="#90B855"/>
<path d="M9.92963 29.9433C9.92963 30.3315 10.0318 30.6939 10.2087 31H1.69331C1.31052 31 1 30.6588 1 30.2383V28.983C1 26.611 1.96688 23.566 4.7915 23C5.69953 23.7428 6.54542 24.0549 7.80391 24.0549C9.06451 24.0549 10.0226 23.7377 10.8054 23.0134C10.8714 23.0273 10.9361 23.0425 11 23.0586C10.3075 24.5461 9.92974 26.3521 9.92974 28.201V29.9433H9.92963Z" fill="#90B855"/>
<path d="M35 22C37.2091 22 39 20.2091 39 18C39 15.7909 37.2091 14 35 14C32.7909 14 31 15.7909 31 18C31 20.2091 32.7909 22 35 22Z" fill="#90B855"/>
<path d="M33.0704 29.9433C33.0704 30.3315 32.9682 30.6939 32.7913 31H41.3067C41.6895 31 42 30.6588 42 30.2383V28.983C42 26.611 41.0331 23.566 38.2085 23C37.3005 23.7428 36.4546 24.0549 35.1961 24.0549C33.9355 24.0549 32.9774 23.7377 32.1946 23.0134C32.1286 23.0273 32.0639 23.0425 32 23.0586C32.6925 24.5461 33.0703 26.3521 33.0703 28.201V29.9433H33.0704Z" fill="#90B855"/>
</svg>
