<svg width="73" height="66" viewBox="0 0 73 66" fill="none" xmlns="http://www.w3.org/2000/svg">
<g clip-path="url(#clip0_1807_3186)">
<path d="M7.08328 0H55.1735C57.1196 0 58.889 0.804774 60.168 2.08471L60.2863 2.21455C61.5025 3.49021 62.2553 5.21819 62.2553 7.09028V27.4394C60.2835 26.8743 58.2018 26.5689 56.0489 26.5689C55.0152 26.5689 53.9986 26.6403 53.002 26.7758L58.4442 21.7075V7.09028C58.4442 6.24128 58.1077 5.45077 57.5602 4.86146L57.4747 4.78155C56.8815 4.18796 56.0646 3.81269 55.1735 3.81269H7.08328C6.22068 3.81269 5.4365 4.14801 4.85621 4.68881L4.77352 4.77727C4.18039 5.37086 3.80969 6.19133 3.80969 7.09028V32.4792C8.02715 28.6736 14.7782 23.3541 19.0399 19.7683C19.7357 19.1662 20.7708 19.179 21.4537 19.7626C21.592 19.8782 21.6947 20.018 21.8102 20.155L31.7393 35.226L35.2881 24.4157C35.5718 22.9061 37.354 22.4052 38.4334 23.4084L44.8508 29.5583C43.7415 30.1976 42.695 30.931 41.7155 31.7443L38.412 28.5709L34.7905 39.812C34.5624 41.403 32.5891 42.0066 31.5226 40.7795L20.0779 23.8935L3.80969 37.5461V48.9157C3.80969 49.8089 4.18467 50.6265 4.77779 51.2201C5.3752 51.8194 6.19787 52.1933 7.08328 52.1933H33.8224C34.0063 53.5032 34.3029 54.7774 34.7035 56.006H7.08328C5.14707 56.006 3.37055 55.204 2.08307 53.917C0.804141 52.6356 0 50.8634 0 48.9157V7.09028C0 5.13971 0.797012 3.36464 2.07879 2.08043L2.20996 1.96199C3.48604 0.749124 5.20268 0 7.08328 0ZM56.0489 32.0697C60.7297 32.0697 64.9686 33.9689 68.034 37.0381C71.1023 40.1088 73 44.3496 73 49.0341C73 53.7186 71.1023 57.9622 68.0354 61.0301C64.9686 64.1008 60.7297 66 56.0489 66C51.3695 66 47.1306 64.1008 44.0623 61.0301C40.9955 57.9622 39.0978 53.7186 39.0978 49.0341C39.0978 44.3539 40.9955 40.116 44.0623 37.0453C47.1378 33.9689 51.3723 32.0697 56.0489 32.0697ZM54.827 41.5015H57.2736C57.8525 41.5015 58.3273 41.9824 58.3273 42.5545V46.7582H62.5248C63.1037 46.7582 63.5784 47.2434 63.5784 47.8127V50.2598C63.5784 50.8334 63.0979 51.3157 62.5248 51.3157H58.3273V55.5165C58.3273 56.0902 57.8468 56.571 57.2736 56.571H54.827C54.2538 56.571 53.7733 56.0973 53.7733 55.5165V51.3157H49.5716C48.9984 51.3157 48.5179 50.8406 48.5179 50.2598V47.8127C48.5179 47.2319 48.9913 46.7582 49.5716 46.7582H53.7733V42.5545C53.7733 41.9752 54.2467 41.5015 54.827 41.5015ZM65.72 39.354C63.2477 36.8797 59.8258 35.3458 56.0489 35.3458C52.2706 35.3458 48.8487 36.8769 46.3735 39.3511C43.9012 41.8268 42.3714 45.2528 42.3714 49.0341C42.3714 52.814 43.9041 56.24 46.3764 58.7142C48.8515 61.1913 52.2734 62.7238 56.0489 62.7238C59.8258 62.7238 63.2477 61.1913 65.7214 58.7142C68.1951 56.24 69.7264 52.814 69.7264 49.0341C69.7264 45.2557 68.1951 41.8311 65.72 39.354ZM38.1967 8.72409C39.7707 8.72409 41.1994 9.36334 42.2331 10.3978C43.2668 11.4324 43.9055 12.8607 43.9055 14.4374C43.9055 16.0113 43.2668 17.4425 42.2331 18.477C41.1994 19.5115 39.7707 20.1507 38.1967 20.1507C36.6212 20.1507 35.194 19.5115 34.1603 18.477C33.1266 17.4425 32.4879 16.0113 32.4879 14.4374C32.4879 12.8607 33.1266 11.4324 34.1603 10.3978C35.194 9.36334 36.6212 8.72409 38.1967 8.72409ZM39.939 12.6937C39.4766 12.2319 38.8499 11.9727 38.1967 11.9731C37.5166 11.9731 36.8992 12.25 36.4544 12.6937C35.9933 13.1566 35.7348 13.7838 35.7358 14.4374C35.7358 15.118 36.011 15.7359 36.4544 16.1811C36.8992 16.6249 37.5166 16.9017 38.1967 16.9017C38.8768 16.9017 39.4941 16.6249 39.939 16.1811C40.3824 15.7359 40.659 15.118 40.659 14.4374C40.659 13.7568 40.3824 13.1389 39.939 12.6937Z" fill="#888888"/>
</g>
<defs>
<clipPath id="clip0_1807_3186">
<rect width="73" height="66" fill="white"/>
</clipPath>
</defs>
</svg>
