<svg width="192" height="192" viewBox="0 0 192 192" fill="none" xmlns="http://www.w3.org/2000/svg">
<path d="M95.95 0C42.9579 0 0 42.9579 0 95.95C0 148.942 42.9579 191.9 95.95 191.9C148.942 191.9 191.9 148.942 191.9 95.95C191.9 42.9579 148.942 0 95.95 0ZM95.95 46.9238C114.925 46.9238 130.364 62.3632 130.364 81.3379C130.364 100.315 114.925 115.752 95.95 115.752C76.9732 115.752 61.5359 100.315 61.5359 81.3379C61.5359 62.3632 76.9732 46.9238 95.95 46.9238ZM95.95 178.772C72.2077 178.772 50.9111 168.356 36.3395 151.857C43.1135 139.597 53.7043 129.52 66.2972 123.411C70.5808 121.334 75.5809 121.368 80.018 123.498C85.0138 125.899 90.3742 127.115 95.9521 127.115C101.528 127.115 106.89 125.897 111.886 123.498C116.328 121.366 121.328 121.334 125.607 123.411C138.2 129.518 148.789 139.597 155.563 151.857C140.989 168.354 119.692 178.772 95.95 178.772Z" fill="#989898"/>
</svg>
