<svg width="25" height="25" viewBox="0 0 25 25" fill="none" xmlns="http://www.w3.org/2000/svg">
<path d="M21.77 12.2664H9.41502M5.05402 12.2664H3.27002M5.05402 12.2664C5.05402 11.6882 5.2837 11.1337 5.69253 10.7249C6.10136 10.316 6.65585 10.0864 7.23402 10.0864C7.81219 10.0864 8.36668 10.316 8.77551 10.7249C9.18434 11.1337 9.41402 11.6882 9.41402 12.2664C9.41402 12.8445 9.18434 13.399 8.77551 13.8079C8.36668 14.2167 7.81219 14.4464 7.23402 14.4464C6.65585 14.4464 6.10136 14.2167 5.69253 13.8079C5.2837 13.399 5.05402 12.8445 5.05402 12.2664ZM21.77 18.8734H16.022M16.022 18.8734C16.022 19.4517 15.7918 20.0068 15.3829 20.4157C14.9739 20.8246 14.4193 21.0544 13.841 21.0544C13.2628 21.0544 12.7084 20.8237 12.2995 20.4149C11.8907 20.006 11.661 19.4515 11.661 18.8734M16.022 18.8734C16.022 18.2951 15.7918 17.7409 15.3829 17.332C14.9739 16.9231 14.4193 16.6934 13.841 16.6934C13.2628 16.6934 12.7084 16.923 12.2995 17.3319C11.8907 17.7407 11.661 18.2952 11.661 18.8734M11.661 18.8734H3.27002M21.77 5.65937H18.665M14.304 5.65937H3.27002M14.304 5.65937C14.304 5.0812 14.5337 4.52671 14.9425 4.11788C15.3514 3.70905 15.9058 3.47937 16.484 3.47937C16.7703 3.47937 17.0538 3.53576 17.3183 3.64531C17.5828 3.75487 17.8231 3.91545 18.0255 4.11788C18.2279 4.32031 18.3885 4.56063 18.4981 4.82512C18.6076 5.08961 18.664 5.37309 18.664 5.65937C18.664 5.94565 18.6076 6.22913 18.4981 6.49362C18.3885 6.75811 18.2279 6.99843 18.0255 7.20086C17.8231 7.40329 17.5828 7.56387 17.3183 7.67343C17.0538 7.78298 16.7703 7.83937 16.484 7.83937C15.9058 7.83937 15.3514 7.60969 14.9425 7.20086C14.5337 6.79203 14.304 6.23754 14.304 5.65937Z" stroke="white" stroke-miterlimit="10" stroke-linecap="round"/>
</svg>
