<svg width="54" height="43" viewBox="0 0 54 43" fill="none" xmlns="http://www.w3.org/2000/svg">
<g clip-path="url(#clip0_644_1404)">
<mask id="path-1-outside-1_644_1404" maskUnits="userSpaceOnUse" x="9" y="-1" width="46" height="45" fill="black">
<rect fill="white" x="9" y="-1" width="46" height="45"/>
<path d="M45.9732 12.5634V26.0593C48.3981 26.2066 50.645 27.3702 52.1526 29.2574C53.6604 31.1465 54.2877 33.581 53.8768 35.9555C53.4659 38.3282 52.0554 40.4172 49.9992 41.6991C47.9431 42.981 45.4339 43.3354 43.0971 42.6736C40.7603 42.0118 38.8198 40.3973 37.7558 38.2317C36.6919 36.0662 36.6076 33.5556 37.5247 31.3246L32.5356 28.4701C32.5283 28.4646 32.5191 28.4592 32.5099 28.4537L28.6507 26.2447V26.2465C27.0549 28.6901 24.4669 30.3265 21.5596 30.7338C18.6505 31.1429 15.7084 30.2792 13.4905 28.372C11.2729 26.4629 10 23.6939 10 20.7829C10 17.872 11.2729 15.103 13.4905 13.1939C15.7081 11.2848 18.6502 10.423 21.5596 10.8303C24.4668 11.2394 27.055 12.8757 28.6507 15.3191L39.7163 8.98482C38.5277 6.4976 39.1074 3.53409 41.1488 1.6665C43.1885 -0.198919 46.217 -0.533456 48.6215 0.841075C51.028 2.21561 52.2515 4.9808 51.6462 7.66641C51.039 10.3518 48.7408 12.3352 45.9746 12.5609L45.9732 12.5634ZM45.4523 28.4412C47.0646 28.443 48.5155 29.4048 49.1336 30.8812C49.7499 32.3575 49.4087 34.0556 48.2697 35.1846C48.1083 35.3446 47.9322 35.49 47.7469 35.6209C49.3831 36.0755 50.845 36.9991 51.9511 38.2772C52.8425 36.759 53.1635 34.9791 52.859 33.25C52.5545 31.521 51.6466 29.9538 50.2911 28.8248C48.9356 27.6959 47.2206 27.0758 45.4503 27.0758C43.6803 27.0758 41.9653 27.6957 40.6095 28.8248C39.2539 29.9539 38.3442 31.5211 38.0416 33.25C37.7371 34.9791 38.0581 36.759 38.9495 38.2772C40.0556 36.9991 41.5193 36.0736 43.1553 35.6209C42.9682 35.4918 42.7939 35.3446 42.6325 35.1846C41.4935 34.0555 41.1523 32.3573 41.7686 30.8812C42.3849 29.405 43.8376 28.443 45.4499 28.4412H45.4523ZM47.5342 30.3284C46.5419 29.3448 44.9864 29.1957 43.8217 29.9703C42.6551 30.743 42.2039 32.2248 42.7413 33.5102C43.2788 34.7938 44.6563 35.5229 46.0319 35.252C47.4076 34.9792 48.3999 33.7829 48.3999 32.392C48.3999 31.6175 48.0881 30.8739 47.5342 30.3285L47.5342 30.3284ZM51.3438 39.161C50.6762 38.3301 49.8397 37.6501 48.8878 37.1629C47.3397 36.3738 45.5641 36.1429 43.8639 36.5065C42.1635 36.8719 40.643 37.8101 39.5627 39.161C40.9916 40.941 43.1596 41.9773 45.4541 41.9773C47.7469 41.9773 49.9149 40.9409 51.344 39.161H51.3438ZM44.9335 26.0596V12.5636C43.435 12.4436 42.0281 11.7982 40.9661 10.7437C40.6965 10.4764 40.4525 10.1855 40.2343 9.87463L29.1718 16.207C30.6483 19.0814 30.6483 22.4831 29.1718 25.3576L33.0273 27.5666L33.0567 27.5812L37.9726 30.3956V30.3938C38.3596 29.7102 38.8402 29.0811 39.3996 28.5266C40.878 27.0593 42.848 26.1793 44.9354 26.0594L44.9335 26.0596ZM45.4526 1.74403C46.6779 1.74403 47.7821 2.47676 48.2516 3.59851C48.7212 4.72027 48.4626 6.013 47.5968 6.87298C47.54 6.92935 47.4813 6.98025 47.4226 7.03116C47.7417 7.1348 48.0517 7.26388 48.3507 7.41661C49.022 7.75842 49.6273 8.21659 50.1354 8.77112C51.0103 7.14025 50.959 5.17484 49.9997 3.59307C49.0404 2.00948 47.3144 1.04221 45.4527 1.04221C43.5892 1.04221 41.8632 2.00948 40.9058 3.59307C39.9465 5.17484 39.8952 7.14025 40.7683 8.77112C41.28 8.21841 41.8835 7.76026 42.5548 7.41661C42.8538 7.2657 43.1637 7.13661 43.4829 7.03298C43.4242 6.98207 43.3655 6.93116 43.3105 6.8748C42.4447 6.01482 42.1861 4.72213 42.6557 3.60033C43.1234 2.47854 44.2276 1.74585 45.4529 1.74403L45.4526 1.74403ZM46.8595 3.35307C46.1882 2.68947 45.1371 2.58765 44.3484 3.11126C43.5615 3.63488 43.2552 4.63667 43.6202 5.50573C43.9834 6.37297 44.9152 6.86568 45.8451 6.68206C46.7751 6.49661 47.4446 5.68752 47.4446 4.74756C47.4464 4.22394 47.2355 3.72213 46.8595 3.35307ZM49.5375 9.65284C49.0789 9.1056 48.514 8.6547 47.8775 8.32924C45.6636 7.20201 42.958 7.7529 41.3697 9.65284C41.4743 9.77829 41.5844 9.89829 41.7017 10.0128C42.6977 11.0001 44.0459 11.5546 45.4546 11.5546C46.8614 11.5546 48.2114 11.0001 49.2055 10.0128C49.3211 9.89829 49.4311 9.77829 49.5375 9.65284H49.5375ZM20.1386 13.6017C22.2113 13.6054 24.0327 14.9635 24.6123 16.938C25.1919 18.9107 24.3904 21.0254 22.6442 22.1324C24.7151 22.656 26.5658 23.8141 27.9323 25.4432C29.0475 23.6105 29.4675 21.4435 29.1208 19.3304C28.7723 17.2177 27.6773 15.2977 26.032 13.9103C24.3867 12.5249 22.2975 11.7631 20.1386 11.7631C17.9779 11.7631 15.8887 12.5249 14.2433 13.9103C12.5979 15.2975 11.5048 17.2175 11.1562 19.3304C10.8077 21.4431 11.2278 23.6101 12.343 25.4432C13.2179 24.4032 14.2928 23.5487 15.507 22.9305C16.182 22.5851 16.8955 22.3178 17.6329 22.1324C15.8794 21.0288 15.0741 18.9107 15.6537 16.9342C16.2352 14.9578 18.0621 13.5997 20.1384 13.6015L20.1386 13.6017ZM22.7047 15.6853C21.4812 14.4708 19.5626 14.2817 18.1229 15.2344C16.6812 16.1871 16.1199 18.0162 16.7821 19.6034C17.4461 21.1888 19.1464 22.0906 20.845 21.7561C22.5435 21.4215 23.7669 19.9434 23.7669 18.2271C23.7669 17.2726 23.3854 16.358 22.7049 15.6835L22.7047 15.6853ZM27.3158 26.3285H27.3176C25.5935 24.134 22.9448 22.8504 20.1404 22.8504C17.334 22.8504 14.6856 24.134 12.9611 26.3285C13.1904 26.6212 13.4381 26.8994 13.704 27.1612C15.4098 28.8521 17.7266 29.8029 20.1386 29.8029C22.5524 29.8029 24.869 28.852 26.5747 27.1612C26.8388 26.8976 27.0864 26.6194 27.3175 26.3285H27.3158Z"/>
</mask>
<path d="M45.9732 12.5634V26.0593C48.3981 26.2066 50.645 27.3702 52.1526 29.2574C53.6604 31.1465 54.2877 33.581 53.8768 35.9555C53.4659 38.3282 52.0554 40.4172 49.9992 41.6991C47.9431 42.981 45.4339 43.3354 43.0971 42.6736C40.7603 42.0118 38.8198 40.3973 37.7558 38.2317C36.6919 36.0662 36.6076 33.5556 37.5247 31.3246L32.5356 28.4701C32.5283 28.4646 32.5191 28.4592 32.5099 28.4537L28.6507 26.2447V26.2465C27.0549 28.6901 24.4669 30.3265 21.5596 30.7338C18.6505 31.1429 15.7084 30.2792 13.4905 28.372C11.2729 26.4629 10 23.6939 10 20.7829C10 17.872 11.2729 15.103 13.4905 13.1939C15.7081 11.2848 18.6502 10.423 21.5596 10.8303C24.4668 11.2394 27.055 12.8757 28.6507 15.3191L39.7163 8.98482C38.5277 6.4976 39.1074 3.53409 41.1488 1.6665C43.1885 -0.198919 46.217 -0.533456 48.6215 0.841075C51.028 2.21561 52.2515 4.9808 51.6462 7.66641C51.039 10.3518 48.7408 12.3352 45.9746 12.5609L45.9732 12.5634ZM45.4523 28.4412C47.0646 28.443 48.5155 29.4048 49.1336 30.8812C49.7499 32.3575 49.4087 34.0556 48.2697 35.1846C48.1083 35.3446 47.9322 35.49 47.7469 35.6209C49.3831 36.0755 50.845 36.9991 51.9511 38.2772C52.8425 36.759 53.1635 34.9791 52.859 33.25C52.5545 31.521 51.6466 29.9538 50.2911 28.8248C48.9356 27.6959 47.2206 27.0758 45.4503 27.0758C43.6803 27.0758 41.9653 27.6957 40.6095 28.8248C39.2539 29.9539 38.3442 31.5211 38.0416 33.25C37.7371 34.9791 38.0581 36.759 38.9495 38.2772C40.0556 36.9991 41.5193 36.0736 43.1553 35.6209C42.9682 35.4918 42.7939 35.3446 42.6325 35.1846C41.4935 34.0555 41.1523 32.3573 41.7686 30.8812C42.3849 29.405 43.8376 28.443 45.4499 28.4412H45.4523ZM47.5342 30.3284C46.5419 29.3448 44.9864 29.1957 43.8217 29.9703C42.6551 30.743 42.2039 32.2248 42.7413 33.5102C43.2788 34.7938 44.6563 35.5229 46.0319 35.252C47.4076 34.9792 48.3999 33.7829 48.3999 32.392C48.3999 31.6175 48.0881 30.8739 47.5342 30.3285L47.5342 30.3284ZM51.3438 39.161C50.6762 38.3301 49.8397 37.6501 48.8878 37.1629C47.3397 36.3738 45.5641 36.1429 43.8639 36.5065C42.1635 36.8719 40.643 37.8101 39.5627 39.161C40.9916 40.941 43.1596 41.9773 45.4541 41.9773C47.7469 41.9773 49.9149 40.9409 51.344 39.161H51.3438ZM44.9335 26.0596V12.5636C43.435 12.4436 42.0281 11.7982 40.9661 10.7437C40.6965 10.4764 40.4525 10.1855 40.2343 9.87463L29.1718 16.207C30.6483 19.0814 30.6483 22.4831 29.1718 25.3576L33.0273 27.5666L33.0567 27.5812L37.9726 30.3956V30.3938C38.3596 29.7102 38.8402 29.0811 39.3996 28.5266C40.878 27.0593 42.848 26.1793 44.9354 26.0594L44.9335 26.0596ZM45.4526 1.74403C46.6779 1.74403 47.7821 2.47676 48.2516 3.59851C48.7212 4.72027 48.4626 6.013 47.5968 6.87298C47.54 6.92935 47.4813 6.98025 47.4226 7.03116C47.7417 7.1348 48.0517 7.26388 48.3507 7.41661C49.022 7.75842 49.6273 8.21659 50.1354 8.77112C51.0103 7.14025 50.959 5.17484 49.9997 3.59307C49.0404 2.00948 47.3144 1.04221 45.4527 1.04221C43.5892 1.04221 41.8632 2.00948 40.9058 3.59307C39.9465 5.17484 39.8952 7.14025 40.7683 8.77112C41.28 8.21841 41.8835 7.76026 42.5548 7.41661C42.8538 7.2657 43.1637 7.13661 43.4829 7.03298C43.4242 6.98207 43.3655 6.93116 43.3105 6.8748C42.4447 6.01482 42.1861 4.72213 42.6557 3.60033C43.1234 2.47854 44.2276 1.74585 45.4529 1.74403L45.4526 1.74403ZM46.8595 3.35307C46.1882 2.68947 45.1371 2.58765 44.3484 3.11126C43.5615 3.63488 43.2552 4.63667 43.6202 5.50573C43.9834 6.37297 44.9152 6.86568 45.8451 6.68206C46.7751 6.49661 47.4446 5.68752 47.4446 4.74756C47.4464 4.22394 47.2355 3.72213 46.8595 3.35307ZM49.5375 9.65284C49.0789 9.1056 48.514 8.6547 47.8775 8.32924C45.6636 7.20201 42.958 7.7529 41.3697 9.65284C41.4743 9.77829 41.5844 9.89829 41.7017 10.0128C42.6977 11.0001 44.0459 11.5546 45.4546 11.5546C46.8614 11.5546 48.2114 11.0001 49.2055 10.0128C49.3211 9.89829 49.4311 9.77829 49.5375 9.65284H49.5375ZM20.1386 13.6017C22.2113 13.6054 24.0327 14.9635 24.6123 16.938C25.1919 18.9107 24.3904 21.0254 22.6442 22.1324C24.7151 22.656 26.5658 23.8141 27.9323 25.4432C29.0475 23.6105 29.4675 21.4435 29.1208 19.3304C28.7723 17.2177 27.6773 15.2977 26.032 13.9103C24.3867 12.5249 22.2975 11.7631 20.1386 11.7631C17.9779 11.7631 15.8887 12.5249 14.2433 13.9103C12.5979 15.2975 11.5048 17.2175 11.1562 19.3304C10.8077 21.4431 11.2278 23.6101 12.343 25.4432C13.2179 24.4032 14.2928 23.5487 15.507 22.9305C16.182 22.5851 16.8955 22.3178 17.6329 22.1324C15.8794 21.0288 15.0741 18.9107 15.6537 16.9342C16.2352 14.9578 18.0621 13.5997 20.1384 13.6015L20.1386 13.6017ZM22.7047 15.6853C21.4812 14.4708 19.5626 14.2817 18.1229 15.2344C16.6812 16.1871 16.1199 18.0162 16.7821 19.6034C17.4461 21.1888 19.1464 22.0906 20.845 21.7561C22.5435 21.4215 23.7669 19.9434 23.7669 18.2271C23.7669 17.2726 23.3854 16.358 22.7049 15.6835L22.7047 15.6853ZM27.3158 26.3285H27.3176C25.5935 24.134 22.9448 22.8504 20.1404 22.8504C17.334 22.8504 14.6856 24.134 12.9611 26.3285C13.1904 26.6212 13.4381 26.8994 13.704 27.1612C15.4098 28.8521 17.7266 29.8029 20.1386 29.8029C22.5524 29.8029 24.869 28.852 26.5747 27.1612C26.8388 26.8976 27.0864 26.6194 27.3175 26.3285H27.3158Z" fill="#626262"/>
<path d="M45.9732 12.5634V26.0593C48.3981 26.2066 50.645 27.3702 52.1526 29.2574C53.6604 31.1465 54.2877 33.581 53.8768 35.9555C53.4659 38.3282 52.0554 40.4172 49.9992 41.6991C47.9431 42.981 45.4339 43.3354 43.0971 42.6736C40.7603 42.0118 38.8198 40.3973 37.7558 38.2317C36.6919 36.0662 36.6076 33.5556 37.5247 31.3246L32.5356 28.4701C32.5283 28.4646 32.5191 28.4592 32.5099 28.4537L28.6507 26.2447V26.2465C27.0549 28.6901 24.4669 30.3265 21.5596 30.7338C18.6505 31.1429 15.7084 30.2792 13.4905 28.372C11.2729 26.4629 10 23.6939 10 20.7829C10 17.872 11.2729 15.103 13.4905 13.1939C15.7081 11.2848 18.6502 10.423 21.5596 10.8303C24.4668 11.2394 27.055 12.8757 28.6507 15.3191L39.7163 8.98482C38.5277 6.4976 39.1074 3.53409 41.1488 1.6665C43.1885 -0.198919 46.217 -0.533456 48.6215 0.841075C51.028 2.21561 52.2515 4.9808 51.6462 7.66641C51.039 10.3518 48.7408 12.3352 45.9746 12.5609L45.9732 12.5634ZM45.4523 28.4412C47.0646 28.443 48.5155 29.4048 49.1336 30.8812C49.7499 32.3575 49.4087 34.0556 48.2697 35.1846C48.1083 35.3446 47.9322 35.49 47.7469 35.6209C49.3831 36.0755 50.845 36.9991 51.9511 38.2772C52.8425 36.759 53.1635 34.9791 52.859 33.25C52.5545 31.521 51.6466 29.9538 50.2911 28.8248C48.9356 27.6959 47.2206 27.0758 45.4503 27.0758C43.6803 27.0758 41.9653 27.6957 40.6095 28.8248C39.2539 29.9539 38.3442 31.5211 38.0416 33.25C37.7371 34.9791 38.0581 36.759 38.9495 38.2772C40.0556 36.9991 41.5193 36.0736 43.1553 35.6209C42.9682 35.4918 42.7939 35.3446 42.6325 35.1846C41.4935 34.0555 41.1523 32.3573 41.7686 30.8812C42.3849 29.405 43.8376 28.443 45.4499 28.4412H45.4523ZM47.5342 30.3284C46.5419 29.3448 44.9864 29.1957 43.8217 29.9703C42.6551 30.743 42.2039 32.2248 42.7413 33.5102C43.2788 34.7938 44.6563 35.5229 46.0319 35.252C47.4076 34.9792 48.3999 33.7829 48.3999 32.392C48.3999 31.6175 48.0881 30.8739 47.5342 30.3285L47.5342 30.3284ZM51.3438 39.161C50.6762 38.3301 49.8397 37.6501 48.8878 37.1629C47.3397 36.3738 45.5641 36.1429 43.8639 36.5065C42.1635 36.8719 40.643 37.8101 39.5627 39.161C40.9916 40.941 43.1596 41.9773 45.4541 41.9773C47.7469 41.9773 49.9149 40.9409 51.344 39.161H51.3438ZM44.9335 26.0596V12.5636C43.435 12.4436 42.0281 11.7982 40.9661 10.7437C40.6965 10.4764 40.4525 10.1855 40.2343 9.87463L29.1718 16.207C30.6483 19.0814 30.6483 22.4831 29.1718 25.3576L33.0273 27.5666L33.0567 27.5812L37.9726 30.3956V30.3938C38.3596 29.7102 38.8402 29.0811 39.3996 28.5266C40.878 27.0593 42.848 26.1793 44.9354 26.0594L44.9335 26.0596ZM45.4526 1.74403C46.6779 1.74403 47.7821 2.47676 48.2516 3.59851C48.7212 4.72027 48.4626 6.013 47.5968 6.87298C47.54 6.92935 47.4813 6.98025 47.4226 7.03116C47.7417 7.1348 48.0517 7.26388 48.3507 7.41661C49.022 7.75842 49.6273 8.21659 50.1354 8.77112C51.0103 7.14025 50.959 5.17484 49.9997 3.59307C49.0404 2.00948 47.3144 1.04221 45.4527 1.04221C43.5892 1.04221 41.8632 2.00948 40.9058 3.59307C39.9465 5.17484 39.8952 7.14025 40.7683 8.77112C41.28 8.21841 41.8835 7.76026 42.5548 7.41661C42.8538 7.2657 43.1637 7.13661 43.4829 7.03298C43.4242 6.98207 43.3655 6.93116 43.3105 6.8748C42.4447 6.01482 42.1861 4.72213 42.6557 3.60033C43.1234 2.47854 44.2276 1.74585 45.4529 1.74403L45.4526 1.74403ZM46.8595 3.35307C46.1882 2.68947 45.1371 2.58765 44.3484 3.11126C43.5615 3.63488 43.2552 4.63667 43.6202 5.50573C43.9834 6.37297 44.9152 6.86568 45.8451 6.68206C46.7751 6.49661 47.4446 5.68752 47.4446 4.74756C47.4464 4.22394 47.2355 3.72213 46.8595 3.35307ZM49.5375 9.65284C49.0789 9.1056 48.514 8.6547 47.8775 8.32924C45.6636 7.20201 42.958 7.7529 41.3697 9.65284C41.4743 9.77829 41.5844 9.89829 41.7017 10.0128C42.6977 11.0001 44.0459 11.5546 45.4546 11.5546C46.8614 11.5546 48.2114 11.0001 49.2055 10.0128C49.3211 9.89829 49.4311 9.77829 49.5375 9.65284H49.5375ZM20.1386 13.6017C22.2113 13.6054 24.0327 14.9635 24.6123 16.938C25.1919 18.9107 24.3904 21.0254 22.6442 22.1324C24.7151 22.656 26.5658 23.8141 27.9323 25.4432C29.0475 23.6105 29.4675 21.4435 29.1208 19.3304C28.7723 17.2177 27.6773 15.2977 26.032 13.9103C24.3867 12.5249 22.2975 11.7631 20.1386 11.7631C17.9779 11.7631 15.8887 12.5249 14.2433 13.9103C12.5979 15.2975 11.5048 17.2175 11.1562 19.3304C10.8077 21.4431 11.2278 23.6101 12.343 25.4432C13.2179 24.4032 14.2928 23.5487 15.507 22.9305C16.182 22.5851 16.8955 22.3178 17.6329 22.1324C15.8794 21.0288 15.0741 18.9107 15.6537 16.9342C16.2352 14.9578 18.0621 13.5997 20.1384 13.6015L20.1386 13.6017ZM22.7047 15.6853C21.4812 14.4708 19.5626 14.2817 18.1229 15.2344C16.6812 16.1871 16.1199 18.0162 16.7821 19.6034C17.4461 21.1888 19.1464 22.0906 20.845 21.7561C22.5435 21.4215 23.7669 19.9434 23.7669 18.2271C23.7669 17.2726 23.3854 16.358 22.7049 15.6835L22.7047 15.6853ZM27.3158 26.3285H27.3176C25.5935 24.134 22.9448 22.8504 20.1404 22.8504C17.334 22.8504 14.6856 24.134 12.9611 26.3285C13.1904 26.6212 13.4381 26.8994 13.704 27.1612C15.4098 28.8521 17.7266 29.8029 20.1386 29.8029C22.5524 29.8029 24.869 28.852 26.5747 27.1612C26.8388 26.8976 27.0864 26.6194 27.3175 26.3285H27.3158Z" stroke="#626262" mask="url(#path-1-outside-1_644_1404)"/>
<circle cx="10" cy="10" r="10" fill="#B5CD0D"/>
</g>
<defs>
<clipPath id="clip0_644_1404">
<rect width="54" height="43" fill="white"/>
</clipPath>
</defs>
</svg>
