<svg width="87" height="87" viewBox="0 0 87 87" fill="none" xmlns="http://www.w3.org/2000/svg">
<g clip-path="url(#clip0_1_59)">
<path d="M43.5 87C61.486 87 76.0666 83.8647 76.0666 79.997C76.0666 76.1294 61.486 72.994 43.5 72.994C25.5139 72.994 10.9333 76.1294 10.9333 79.997C10.9333 83.8647 25.5139 87 43.5 87Z" fill="#0FBB6B"/>
<path d="M76.0666 79.997C76.0666 76.1294 61.4861 72.994 43.5 72.994C40.5079 72.994 37.6111 73.0812 34.8588 73.2438L40.9548 82.2119C41.1249 82.4622 41.3234 82.6764 41.5413 82.8569L45.6685 86.9841C62.6432 86.7441 76.0666 83.708 76.0666 79.997Z" fill="url(#paint0_linear_1_59)"/>
<path d="M79.1942 35.6942C79.1942 15.9809 63.2135 0 43.5002 0C23.8726 0 8.00433 15.7015 7.80747 35.3281C7.65889 50.1514 16.5477 62.9145 29.3009 68.4499C31.435 69.3762 33.2604 70.8924 34.5683 72.8165L40.9548 82.2119C42.1761 84.0084 44.8238 84.0084 46.045 82.2119L52.4313 72.8166C53.7351 70.8985 55.551 69.3806 57.6791 68.4586C70.3378 62.9732 79.1942 50.3689 79.1942 35.6942Z" fill="url(#paint1_linear_1_59)"/>
<path d="M43.5 58.1314C55.8917 58.1314 65.9371 48.0859 65.9371 35.6942C65.9371 23.3025 55.8917 13.2571 43.5 13.2571C31.1083 13.2571 21.0629 23.3025 21.0629 35.6942C21.0629 48.0859 31.1083 58.1314 43.5 58.1314Z" fill="url(#paint2_linear_1_59)"/>
<path d="M78.0775 44.5812L56.7605 23.2641C53.4442 19.7278 48.7306 17.5177 43.5 17.5177C33.4614 17.5177 25.3235 25.6556 25.3235 35.6942C25.3235 40.9248 27.5336 45.6385 31.0699 48.9547L53.5357 71.4205C54.6901 70.158 56.0983 69.1435 57.6793 68.4586C67.6909 64.12 75.323 55.3281 78.0775 44.5812Z" fill="url(#paint3_linear_1_59)"/>
<path d="M43.5 53.8707C53.5386 53.8707 61.6765 45.7328 61.6765 35.6942C61.6765 25.6556 53.5386 17.5177 43.5 17.5177C33.4614 17.5177 25.3235 25.6556 25.3235 35.6942C25.3235 45.7328 33.4614 53.8707 43.5 53.8707Z" fill="url(#paint4_linear_1_59)"/>
</g>
<defs>
<linearGradient id="paint0_linear_1_59" x1="60.4104" y1="83.2377" x2="49.6393" y2="69.4951" gradientUnits="userSpaceOnUse">
<stop stop-color="#FFDA45" stop-opacity="0"/>
<stop offset="1" stop-color="#B53759"/>
</linearGradient>
<linearGradient id="paint1_linear_1_59" x1="21.9569" y1="14.15" x2="93.1773" y2="85.3704" gradientUnits="userSpaceOnUse">
<stop offset="1" stop-color="#8DA416"/>
</linearGradient>
<linearGradient id="paint2_linear_1_59" x1="57.0294" y1="49.2236" x2="12.2793" y2="4.4735" gradientUnits="userSpaceOnUse">
<stop stop-color="#8DA416"/>
</linearGradient>
<linearGradient id="paint3_linear_1_59" x1="66.8426" y1="59.0368" x2="47.0088" y2="39.203" gradientUnits="userSpaceOnUse">
<stop offset="1" stop-color="#8DA416"/>
</linearGradient>
<linearGradient id="paint4_linear_1_59" x1="39.0503" y1="28.9086" x2="49.7913" y2="45.2884" gradientUnits="userSpaceOnUse">
<stop stop-color="#F9F7FC"/>
<stop offset="1" stop-color="#F0DDFC"/>
</linearGradient>
<clipPath id="clip0_1_59">
<rect width="87" height="87" fill="white"/>
</clipPath>
</defs>
</svg>
