<svg width="24" height="24" viewBox="0 0 24 24" fill="none" xmlns="http://www.w3.org/2000/svg">
<g clip-path="url(#clip0_2_57728)">
<path d="M21 1.5C21.3978 1.5 21.7794 1.65804 22.0607 1.93934C22.342 2.22064 22.5 2.60218 22.5 3V21C22.5 21.3978 22.342 21.7794 22.0607 22.0607C21.7794 22.342 21.3978 22.5 21 22.5H3C2.60218 22.5 2.22064 22.342 1.93934 22.0607C1.65804 21.7794 1.5 21.3978 1.5 21V3C1.5 2.60218 1.65804 2.22064 1.93934 1.93934C2.22064 1.65804 2.60218 1.5 3 1.5H21ZM3 0C2.20435 0 1.44129 0.316071 0.87868 0.87868C0.316071 1.44129 0 2.20435 0 3L0 21C0 21.7956 0.316071 22.5587 0.87868 23.1213C1.44129 23.6839 2.20435 24 3 24H21C21.7956 24 22.5587 23.6839 23.1213 23.1213C23.6839 22.5587 24 21.7956 24 21V3C24 2.20435 23.6839 1.44129 23.1213 0.87868C22.5587 0.316071 21.7956 0 21 0L3 0Z" fill="black"/>
<path d="M10.5029 16.5C10.5029 16.303 10.5417 16.108 10.6171 15.926C10.6925 15.744 10.803 15.5786 10.9423 15.4393C11.0816 15.3 11.2469 15.1896 11.4289 15.1142C11.6109 15.0388 11.8059 15 12.0029 15C12.1999 15 12.395 15.0388 12.577 15.1142C12.7589 15.1896 12.9243 15.3 13.0636 15.4393C13.2029 15.5786 13.3134 15.744 13.3887 15.926C13.4641 16.108 13.5029 16.303 13.5029 16.5C13.5029 16.8978 13.3449 17.2793 13.0636 17.5607C12.7823 17.842 12.4008 18 12.0029 18C11.6051 18 11.2236 17.842 10.9423 17.5607C10.661 17.2793 10.5029 16.8978 10.5029 16.5ZM10.6499 7.49249C10.63 7.30325 10.65 7.11193 10.7087 6.93093C10.7675 6.74994 10.8636 6.58331 10.9909 6.44187C11.1182 6.30043 11.2738 6.18733 11.4476 6.10992C11.6215 6.0325 11.8096 5.99249 11.9999 5.99249C12.1902 5.99249 12.3784 6.0325 12.5522 6.10992C12.726 6.18733 12.8817 6.30043 13.009 6.44187C13.1362 6.58331 13.2324 6.74994 13.2911 6.93093C13.3499 7.11193 13.3699 7.30325 13.3499 7.49249L12.8249 12.753C12.8073 12.9596 12.7127 13.1522 12.56 13.2924C12.4072 13.4327 12.2073 13.5106 11.9999 13.5106C11.7925 13.5106 11.5927 13.4327 11.4399 13.2924C11.2871 13.1522 11.1926 12.9596 11.1749 12.753L10.6499 7.49249Z" fill="black"/>
</g>
<defs>
<clipPath id="clip0_2_57728">
<rect width="24" height="24" fill="white"/>
</clipPath>
</defs>
</svg>
